<svg id="visual" viewBox="0 0 960 100" width="960" height="100" xmlns="http://www.w3.org/2000/svg" xmlns:xlink="http://www.w3.org/1999/xlink" version="1.1"><rect x="0" y="0" width="960" height="100" fill="#000000"></rect><path d="M0 34L20 32.5C40 31 80 28 120 27.7C160 27.3 200 29.7 240 30.8C280 32 320 32 360 31.3C400 30.7 440 29.3 480 28.7C520 28 560 28 600 29.7C640 31.3 680 34.7 720 33.8C760 33 800 28 840 27.8C880 27.7 920 32.3 940 34.7L960 37L960 101L940 101C920 101 880 101 840 101C800 101 760 101 720 101C680 101 640 101 600 101C560 101 520 101 480 101C440 101 400 101 360 101C320 101 280 101 240 101C200 101 160 101 120 101C80 101 40 101 20 101L0 101Z" fill="#000000"></path><path d="M0 37L20 37C40 37 80 37 120 36.2C160 35.3 200 33.7 240 32.8C280 32 320 32 360 32C400 32 440 32 480 34.2C520 36.3 560 40.7 600 41C640 41.3 680 37.7 720 36.5C760 35.3 800 36.7 840 36.5C880 36.3 920 34.7 940 33.8L960 33L960 101L940 101C920 101 880 101 840 101C800 101 760 101 720 101C680 101 640 101 600 101C560 101 520 101 480 101C440 101 400 101 360 101C320 101 280 101 240 101C200 101 160 101 120 101C80 101 40 101 20 101L0 101Z" fill="#171717"></path><path d="M0 53L20 51.3C40 49.7 80 46.3 120 45C160 43.7 200 44.3 240 45.3C280 46.3 320 47.7 360 48.8C400 50 440 51 480 49.7C520 48.3 560 44.7 600 42.5C640 40.3 680 39.7 720 40.8C760 42 800 45 840 46.3C880 47.7 920 47.3 940 47.2L960 47L960 101L940 101C920 101 880 101 840 101C800 101 760 101 720 101C680 101 640 101 600 101C560 101 520 101 480 101C440 101 400 101 360 101C320 101 280 101 240 101C200 101 160 101 120 101C80 101 40 101 20 101L0 101Z" fill="#262626"></path><path d="M0 60L20 58.3C40 56.7 80 53.3 120 53.5C160 53.7 200 57.3 240 58.8C280 60.3 320 59.7 360 59.3C400 59 440 59 480 58C520 57 560 55 600 53.2C640 51.3 680 49.7 720 49.2C760 48.7 800 49.3 840 49.5C880 49.7 920 49.3 940 49.2L960 49L960 101L940 101C920 101 880 101 840 101C800 101 760 101 720 101C680 101 640 101 600 101C560 101 520 101 480 101C440 101 400 101 360 101C320 101 280 101 240 101C200 101 160 101 120 101C80 101 40 101 20 101L0 101Z" fill="#373737"></path><path d="M0 61L20 60.5C40 60 80 59 120 60.2C160 61.3 200 64.7 240 65C280 65.3 320 62.7 360 61.8C400 61 440 62 480 62.7C520 63.3 560 63.7 600 62.8C640 62 680 60 720 60.3C760 60.7 800 63.3 840 64.3C880 65.3 920 64.7 940 64.3L960 64L960 101L940 101C920 101 880 101 840 101C800 101 760 101 720 101C680 101 640 101 600 101C560 101 520 101 480 101C440 101 400 101 360 101C320 101 280 101 240 101C200 101 160 101 120 101C80 101 40 101 20 101L0 101Z" fill="#484848"></path><path d="M0 76L20 74.8C40 73.7 80 71.3 120 71C160 70.7 200 72.3 240 73C280 73.7 320 73.3 360 73.5C400 73.7 440 74.3 480 73.8C520 73.3 560 71.7 600 71.8C640 72 680 74 720 73.5C760 73 800 70 840 68.3C880 66.7 920 66.3 940 66.2L960 66L960 101L940 101C920 101 880 101 840 101C800 101 760 101 720 101C680 101 640 101 600 101C560 101 520 101 480 101C440 101 400 101 360 101C320 101 280 101 240 101C200 101 160 101 120 101C80 101 40 101 20 101L0 101Z" fill="#5a5a5a"></path><path d="M0 81L20 81.3C40 81.7 80 82.3 120 81.8C160 81.3 200 79.7 240 78.5C280 77.3 320 76.7 360 76.8C400 77 440 78 480 78.7C520 79.3 560 79.7 600 79.3C640 79 680 78 720 78.5C760 79 800 81 840 81.7C880 82.3 920 81.7 940 81.3L960 81L960 101L940 101C920 101 880 101 840 101C800 101 760 101 720 101C680 101 640 101 600 101C560 101 520 101 480 101C440 101 400 101 360 101C320 101 280 101 240 101C200 101 160 101 120 101C80 101 40 101 20 101L0 101Z" fill="#6d6d6d"></path><path d="M0 89L20 88.8C40 88.7 80 88.3 120 87.7C160 87 200 86 240 86.2C280 86.3 320 87.7 360 87.7C400 87.7 440 86.3 480 86.7C520 87 560 89 600 90C640 91 680 91 720 90.2C760 89.3 800 87.7 840 86.8C880 86 920 86 940 86L960 86L960 101L940 101C920 101 880 101 840 101C800 101 760 101 720 101C680 101 640 101 600 101C560 101 520 101 480 101C440 101 400 101 360 101C320 101 280 101 240 101C200 101 160 101 120 101C80 101 40 101 20 101L0 101Z" fill="#808080"></path></svg>